<svg width="38" height="38" viewBox="0 0 38 38" fill="none" xmlns="http://www.w3.org/2000/svg">
<circle cx="19" cy="19" r="19" fill="#303030"/>
<path d="M15.5602 30C15.8241 30 16.0242 29.9912 16.1561 29.9736C16.3109 29.9423 16.4504 29.8593 16.5519 29.7382C16.6838 29.5996 16.7498 29.3994 16.7498 29.1354L16.741 27.9101C16.7344 27.1291 16.7322 26.5088 16.7322 26.0534L16.3188 26.126C15.988 26.1781 15.653 26.1987 15.3183 26.1876C14.8978 26.1801 14.4786 26.1382 14.0649 26.0622C13.6259 25.9803 13.2128 25.7948 12.8599 25.521C12.49 25.241 12.2139 24.8551 12.0683 24.4144L11.888 23.9987C11.7363 23.6712 11.5459 23.3632 11.3207 23.0813C11.1185 22.7922 10.8491 22.5567 10.5357 22.3949L10.4103 22.3069C10.324 22.2433 10.2457 22.1694 10.1772 22.0869C10.1107 22.012 10.0559 21.9274 10.0145 21.8362C9.97933 21.7526 10.0079 21.6822 10.1025 21.6294C10.2684 21.5626 10.4474 21.5348 10.6258 21.548L10.9864 21.603C11.2283 21.6492 11.5252 21.7944 11.8792 22.0341C12.231 22.2761 12.5235 22.5863 12.7522 22.9713C13.0292 23.4641 13.3613 23.8403 13.7527 24.0977C14.0982 24.3414 14.5086 24.4763 14.9313 24.4848C15.3271 24.4848 15.6701 24.4562 15.9582 24.3968C16.2386 24.3387 16.511 24.2471 16.7696 24.1241C16.8773 23.3211 17.1698 22.7007 17.6492 22.2695C17.0268 22.208 16.4101 22.0991 15.8043 21.944C15.2128 21.7808 14.6439 21.5444 14.1111 21.24C13.5531 20.9371 13.06 20.5275 12.6598 20.0344C12.2772 19.5527 11.9628 18.9235 11.7143 18.1425C11.4552 17.2652 11.3314 16.3535 11.3471 15.4388C11.3471 13.9869 11.822 12.7484 12.7698 11.7276C12.3256 10.6342 12.3674 9.4089 12.8951 8.05156C13.2447 7.94157 13.7615 8.02296 14.4453 8.29355C15.1292 8.56414 15.6328 8.79513 15.9494 8.98872C16.2682 9.18011 16.5211 9.3407 16.7146 9.4727C17.8409 9.15978 19.0047 9.00286 20.1735 9.00632C21.3609 9.00632 22.5154 9.16031 23.6324 9.4749L24.3141 9.04152C24.7847 8.75553 25.3366 8.48934 25.9721 8.24955C26.6098 8.00756 27.0957 7.94157 27.4322 8.05156C27.9731 9.4089 28.0215 10.6342 27.5751 11.7254C28.525 12.7484 29 13.9847 29 15.4388C29 16.4596 28.8769 17.3638 28.6306 18.1513C28.3843 18.9389 28.0655 19.5681 27.6763 20.0432C27.2695 20.5315 26.7741 20.9383 26.2162 21.2422C25.6834 21.5466 25.1145 21.7831 24.523 21.9462C23.9164 22.1007 23.2989 22.2088 22.6759 22.2695C23.3004 22.8085 23.6126 23.6621 23.6126 24.828V29.1332C23.6126 29.3378 23.6434 29.5028 23.7028 29.6304C23.7307 29.6912 23.7707 29.7457 23.8202 29.7907C23.8696 29.8357 23.9277 29.8702 23.9909 29.8922C24.1228 29.9384 24.2415 29.9692 24.3427 29.9802C24.446 29.9934 24.5912 30 24.7825 30H15.5624H15.5602Z" fill="white"/>
</svg>
