<svg width="39" height="39" viewBox="0 0 39 39" fill="none" xmlns="http://www.w3.org/2000/svg">
<path fill-rule="evenodd" clip-rule="evenodd" d="M0 19.0974C0 8.5502 8.5502 0 19.0974 0C29.6446 0 38.1948 8.5502 38.1948 19.0974C38.1948 29.6446 29.6446 38.1948 19.0974 38.1948C8.5502 38.1948 0 29.6446 0 19.0974ZM9.78742 15.8747V28.6461H13.8456V15.8747H9.78742ZM9.5487 11.8165C9.5487 13.1295 10.5036 14.0843 11.8165 14.0843C13.1295 14.0843 14.0843 13.1295 14.0843 11.8165C14.0843 10.5036 13.1295 9.5487 11.8165 9.5487C10.6229 9.5487 9.5487 10.5036 9.5487 11.8165ZM24.5879 28.6461H28.4074V20.7684C28.4074 16.8296 26.0202 15.5166 23.7524 15.5166C21.7233 15.5166 20.291 16.8296 19.9329 17.6651V15.8747H16.1134V28.6461H20.1716V21.8427C20.1716 20.0523 21.3652 19.0974 22.5588 19.0974C23.7524 19.0974 24.5879 19.6942 24.5879 21.7233V28.6461Z" fill="#303030"/>
</svg>
