<svg width="19" height="22" viewBox="0 0 19 22" fill="none" xmlns="http://www.w3.org/2000/svg">
<path d="M5.56019 22C5.82406 22 6.02417 21.9912 6.1561 21.9736C6.31088 21.9423 6.45043 21.8593 6.55191 21.7382C6.68384 21.5996 6.74981 21.3994 6.74981 21.1354L6.74101 19.9101C6.73442 19.1291 6.73222 18.5088 6.73222 18.0534L6.31882 18.126C5.98801 18.1781 5.65301 18.1987 5.31831 18.1876C4.89779 18.1801 4.47859 18.1382 4.06493 18.0622C3.62593 17.9803 3.21282 17.7948 2.85992 17.521C2.48998 17.241 2.21389 16.8551 2.06831 16.4144L1.88799 15.9987C1.73633 15.6712 1.54585 15.3632 1.32067 15.0813C1.1185 14.7922 0.849085 14.5567 0.535657 14.3949L0.410318 14.3069C0.324005 14.2433 0.245737 14.1694 0.177233 14.0869C0.110748 14.012 0.0558965 13.9274 0.0145126 13.8362C-0.0206702 13.7526 0.0079157 13.6822 0.102469 13.6294C0.268424 13.5626 0.447442 13.5348 0.625812 13.548L0.986436 13.603C1.22832 13.6492 1.52517 13.7944 1.8792 14.0341C2.23103 14.2761 2.52348 14.5863 2.75217 14.9713C3.02923 15.4641 3.36127 15.8403 3.75268 16.0977C4.09817 16.3414 4.50863 16.4763 4.9313 16.4848C5.32711 16.4848 5.67014 16.4562 5.9582 16.3968C6.23859 16.3387 6.51099 16.2471 6.7696 16.1241C6.87735 15.3211 7.1698 14.7007 7.64917 14.2695C7.02684 14.208 6.4101 14.0991 5.80427 13.944C5.21275 13.7808 4.64395 13.5444 4.1111 13.24C3.55309 12.9371 3.05998 12.5275 2.65982 12.0344C2.2772 11.5527 1.96276 10.9235 1.71428 10.1425C1.4552 9.26521 1.33137 8.3535 1.34706 7.43884C1.34706 5.9869 1.82203 4.74835 2.76976 3.7276C2.32558 2.63425 2.36736 1.4089 2.8951 0.0515604C3.24473 -0.0584348 3.76147 0.0229609 4.44534 0.293549C5.1292 0.564137 5.63276 0.795127 5.9494 0.988719C6.26825 1.18011 6.52112 1.3407 6.71463 1.4727C7.84086 1.15978 9.00467 1.00286 10.1735 1.00632C11.3609 1.00632 12.5154 1.16031 13.6324 1.4749L14.3141 1.04152C14.7847 0.755529 15.3366 0.489341 15.9721 0.249551C16.6098 0.00756162 17.0957 -0.0584348 17.4322 0.0515604C17.9731 1.4089 18.0215 2.63425 17.5751 3.7254C18.525 4.74835 19 5.9847 19 7.43884C19 8.45959 18.8769 9.36375 18.6306 10.1513C18.3843 10.9389 18.0655 11.5681 17.6763 12.0432C17.2695 12.5315 16.7741 12.9383 16.2162 13.2422C15.6834 13.5466 15.1145 13.7831 14.523 13.9462C13.9164 14.1007 13.2989 14.2088 12.6759 14.2695C13.3004 14.8085 13.6126 15.6621 13.6126 16.828V21.1332C13.6126 21.3378 13.6434 21.5028 13.7028 21.6304C13.7307 21.6912 13.7707 21.7457 13.8202 21.7907C13.8696 21.8357 13.9277 21.8702 13.9909 21.8922C14.1228 21.9384 14.2415 21.9692 14.3427 21.9802C14.446 21.9934 14.5912 22 14.7825 22H5.56239H5.56019Z" fill="white"/>
</svg>
